<?xml version="1.0" standalone="no"?>
<!DOCTYPE svg PUBLIC "-//W3C//DTD SVG 20010904//EN"
 "http://www.w3.org/TR/2001/REC-SVG-20010904/DTD/svg10.dtd">
<svg version="1.0" xmlns="http://www.w3.org/2000/svg"
 width="870.000000pt" height="870.000000pt" viewBox="0 0 870.000000 870.000000"
 preserveAspectRatio="xMidYMid meet">
<metadata>
Created by potrace 1.14, written by Peter Selinger 2001-2017
</metadata>
<g transform="translate(0.000000,870.000000) scale(0.100000,-0.100000)"
fill="#000000" stroke="none">
<path d="M4367 6453 c-3 -5 -6 -58 -7 -118 -2 -190 -15 -541 -25 -670 -25
-317 -24 -827 1 -1190 2 -38 6 -106 9 -150 8 -165 17 -280 22 -288 15 -25 22
25 27 193 7 219 16 437 21 500 18 212 23 721 11 1105 -15 474 -33 660 -59 618z"/>
<path d="M4521 6068 c0 -117 -4 -296 -8 -398 -14 -357 -7 -1010 11 -1130 3
-14 7 -77 11 -140 3 -63 8 -131 10 -150 2 -19 6 -73 10 -120 6 -81 19 -120 29
-89 8 23 19 651 20 1064 0 332 -5 552 -19 746 -2 30 -6 99 -10 153 -4 55 -8
107 -10 115 -1 9 -6 49 -10 89 -5 48 -11 72 -20 72 -10 0 -13 -48 -14 -212z"/>
<path d="M4688 6108 c-6 -20 -2 -1289 5 -1323 3 -16 8 -70 12 -120 5 -82 9
-121 20 -240 2 -22 6 -71 10 -110 3 -38 8 -88 10 -110 2 -22 7 -67 11 -100 7
-66 11 -78 24 -70 9 5 5 1227 -4 1300 -2 22 -7 87 -11 145 -14 238 -26 386
-40 495 -2 17 -7 53 -10 80 -7 52 -19 76 -27 53z"/>
<path d="M4847 5933 c-3 -4 -3 -37 -1 -73 2 -36 6 -180 9 -320 7 -343 16 -666
20 -715 9 -121 24 -264 40 -385 2 -19 7 -60 10 -90 3 -30 7 -68 10 -85 2 -16
7 -60 10 -97 10 -92 19 -133 30 -130 6 1 9 41 8 90 -1 48 -4 222 -7 387 -5
277 -10 417 -21 585 -7 103 -16 222 -20 260 -2 19 -7 67 -10 105 -3 39 -8 81
-10 95 -2 14 -6 57 -10 95 -3 39 -12 115 -20 170 -14 93 -26 128 -38 108z"/>
<path d="M5006 5761 c-4 -5 -4 -24 -2 -43 5 -31 10 -112 21 -288 2 -41 7 -140
10 -220 5 -161 14 -316 20 -370 2 -19 7 -69 11 -110 3 -41 8 -82 9 -91 2 -9 6
-40 10 -70 3 -30 10 -79 15 -109 5 -30 12 -77 15 -105 14 -116 45 -307 51
-317 3 -5 10 -6 15 -3 8 6 7 68 -6 205 -3 30 -7 109 -10 175 -12 280 -24 470
-40 628 -3 26 -7 71 -10 100 -5 50 -20 173 -31 248 -2 20 -7 54 -10 75 -2 22
-9 68 -14 104 -26 175 -38 217 -54 191z"/>
<path d="M5166 5584 c-3 -9 -4 -19 -2 -22 2 -4 7 -43 10 -87 4 -44 9 -93 11
-110 2 -16 7 -61 10 -100 3 -38 8 -92 10 -120 3 -27 7 -81 10 -120 14 -171 15
-189 30 -307 16 -126 22 -167 30 -208 3 -14 7 -36 10 -50 3 -14 7 -36 10 -50
2 -14 7 -41 10 -60 13 -79 17 -99 35 -199 11 -57 23 -107 26 -112 11 -19 24 3
20 34 -11 86 -22 202 -31 307 -3 36 -7 90 -10 120 -3 30 -8 80 -10 110 -11
115 -17 174 -30 275 -12 95 -16 120 -22 160 -3 22 -7 49 -9 60 -4 31 -43 267
-49 295 -3 14 -8 39 -10 55 -12 70 -29 136 -36 140 -4 3 -10 -2 -13 -11z"/>
<path d="M5325 5383 c7 -51 25 -171 32 -208 5 -34 10 -68 18 -140 6 -51 20
-148 30 -220 6 -38 39 -227 51 -290 15 -79 35 -177 49 -245 50 -226 58 -255
74 -245 10 6 8 25 -25 233 -2 15 -6 41 -9 57 -2 17 -7 53 -10 80 -3 28 -8 64
-10 80 -2 17 -7 53 -10 80 -10 81 -44 294 -61 375 -32 159 -94 428 -103 454
-16 39 -32 32 -26 -11z"/>
<path d="M4186 5402 c-2 -4 -7 -75 -10 -157 -4 -83 -9 -184 -12 -225 -12 -167
-13 -226 -13 -485 -1 -276 5 -469 14 -494 14 -37 24 17 30 159 3 85 8 180 10
210 17 239 22 648 10 820 -1 25 -3 75 -4 113 -1 59 -10 82 -25 59z"/>
<path d="M4005 5250 c-4 -6 -8 -46 -10 -88 -5 -88 -14 -213 -20 -257 -17 -141
-27 -821 -11 -861 13 -34 25 2 30 96 10 154 17 263 21 295 13 98 19 304 18
539 -2 247 -8 308 -28 276z"/>
<path d="M3819 5098 c-1 -7 -3 -22 -4 -33 -1 -11 -5 -60 -9 -110 -4 -49 -9
-101 -11 -115 -32 -189 -52 -777 -27 -802 14 -14 20 11 27 102 3 41 8 86 10
100 2 14 6 56 10 93 3 37 8 78 11 90 22 116 28 677 7 685 -7 2 -14 -2 -14 -10z"/>
<path d="M3639 4952 c0 -4 -3 -20 -5 -37 -28 -196 -46 -324 -54 -390 -13 -101
-25 -458 -16 -481 11 -28 24 -4 30 56 10 87 25 198 31 220 2 8 7 38 10 65 4
28 8 61 10 75 8 57 17 233 19 357 1 98 -2 134 -11 138 -7 2 -13 1 -14 -3z"/>
<path d="M3455 4790 c-4 -11 -8 -33 -10 -49 -2 -16 -15 -87 -29 -157 -28 -143
-35 -185 -45 -292 -10 -104 -8 -247 4 -248 8 -1 73 298 90 416 12 81 17 338 7
344 -6 3 -13 -3 -17 -14z"/>
<path d="M3276 4652 c-3 -5 -7 -19 -9 -33 -3 -13 -19 -71 -35 -129 -44 -152
-66 -279 -67 -392 0 -34 4 -57 10 -56 6 2 18 34 28 73 10 38 29 106 43 149 36
115 66 377 45 390 -5 4 -12 3 -15 -2z"/>
<path d="M1493 3359 c-40 -20 -62 -48 -65 -84 -6 -81 24 -122 119 -160 38 -15
78 -36 91 -48 36 -34 26 -89 -23 -114 -28 -15 -113 -13 -158 3 l-38 14 3 -32
c4 -38 22 -46 115 -47 134 -2 207 71 173 174 -14 42 -44 65 -133 100 -90 36
-116 82 -74 129 27 31 65 37 134 21 54 -13 63 -8 63 30 0 32 -150 43 -207 14z"/>
<path d="M4295 3364 c-48 -18 -90 -56 -118 -109 -16 -31 -21 -58 -21 -125 0
-67 5 -94 21 -125 47 -89 111 -120 230 -113 40 3 75 7 78 10 2 2 6 15 7 29 2
19 -1 23 -17 21 -68 -12 -152 -5 -183 13 -82 49 -102 213 -36 300 41 55 112
73 191 49 40 -12 44 -12 54 8 16 29 -8 45 -75 52 -72 7 -86 5 -131 -10z"/>
<path d="M4706 3366 c-84 -31 -130 -106 -135 -218 -5 -117 47 -214 131 -244
50 -19 137 -16 183 5 82 37 119 109 119 233 0 94 -29 158 -90 201 -49 35 -147
45 -208 23z m168 -64 c47 -27 70 -83 69 -168 -1 -129 -50 -189 -153 -189 -71
0 -105 21 -137 85 -40 77 -22 212 36 264 41 37 128 41 185 8z"/>
<path d="M6025 3366 c-53 -20 -110 -84 -124 -140 -24 -95 -5 -214 42 -268 53
-61 174 -86 255 -53 81 34 122 101 127 209 6 115 -33 204 -108 242 -42 22
-145 27 -192 10z m174 -65 c44 -31 65 -85 65 -166 1 -127 -51 -190 -154 -190
-67 0 -102 20 -135 76 -28 47 -27 169 1 224 39 76 154 105 223 56z"/>
<path d="M6960 3360 c-11 -11 -20 -24 -20 -29 0 -6 -36 -101 -80 -213 -44
-111 -78 -208 -76 -214 2 -6 14 -10 27 -9 18 1 28 15 51 77 l29 75 92 -1 92
-1 29 -72 c25 -62 33 -72 58 -75 16 -3 28 0 28 7 0 6 -25 74 -55 150 -31 77
-70 177 -88 223 -36 95 -56 113 -87 82z m63 -167 l35 -93 -24 -1 c-13 0 -37
-1 -54 -1 -53 0 -60 2 -60 13 0 14 62 180 66 176 1 -1 18 -44 37 -94z"/>
<path d="M7917 3365 c-48 -17 -83 -48 -110 -100 -27 -51 -29 -199 -4 -255 80
-179 361 -151 407 40 15 61 8 158 -14 211 -40 96 -167 143 -279 104z m173 -64
c47 -34 64 -77 64 -166 0 -92 -18 -135 -73 -172 -42 -28 -127 -27 -168 3 -88
64 -92 275 -6 331 54 36 137 37 183 4z"/>
<path d="M5 3140 c0 -190 3 -232 15 -240 8 -5 21 -5 29 -1 12 7 14 46 13 232
0 123 -1 227 -1 232 -1 4 -13 7 -29 7 l-27 0 0 -230z"/>
<path d="M190 3136 c0 -242 2 -255 40 -236 13 7 15 38 14 194 -1 102 0 186 1
186 2 0 14 -17 26 -37 13 -21 67 -105 121 -188 79 -121 104 -151 126 -156 15
-3 32 -4 37 -2 8 2 13 403 6 466 -1 4 -12 7 -26 7 -29 0 -27 17 -26 -227 0
-84 -1 -153 -3 -153 -2 0 -59 86 -126 190 -120 184 -124 190 -157 190 l-33 0
0 -234z"/>
<path d="M679 3213 c31 -87 68 -191 81 -232 25 -73 44 -94 80 -84 8 3 25 35
39 76 12 40 33 99 46 132 12 33 37 101 55 150 18 50 35 96 38 103 3 10 -4 13
-29 10 l-33 -3 -63 -175 c-34 -96 -63 -181 -63 -187 0 -7 -4 -13 -10 -13 -5 0
-10 6 -10 13 0 6 -28 92 -62 189 l-63 178 -31 0 -32 0 57 -157z"/>
<path d="M1080 3135 c0 -181 3 -235 13 -236 15 -1 215 -1 240 0 11 1 17 9 17
26 l0 25 -105 0 -105 0 0 85 0 85 98 0 c96 0 97 0 98 25 l2 25 -99 0 -99 0 0
75 0 75 105 0 105 0 0 25 0 25 -135 0 -135 0 0 -235z"/>
<path d="M1750 3345 c0 -24 2 -25 75 -25 64 0 75 -2 76 -17 0 -10 0 -104 0
-209 l0 -192 24 -4 c14 -3 27 -3 30 0 3 3 5 99 5 214 l0 208 75 0 c73 0 75 1
75 25 l0 25 -180 0 -180 0 0 -25z"/>
<path d="M2177 3182 c3 -318 0 -289 26 -287 22 2 22 3 27 198 l5 197 34 -88
c80 -208 99 -258 105 -278 8 -28 53 -38 65 -15 4 9 39 98 77 198 l69 182 3
-191 c3 -197 5 -210 43 -201 18 5 19 18 19 239 l0 234 -44 0 -44 0 -37 -97
c-21 -54 -55 -141 -75 -193 l-38 -95 -14 35 c-8 19 -41 106 -74 192 l-59 158
-45 0 -45 0 2 -188z"/>
<path d="M2774 3138 c0 -128 3 -235 7 -238 4 -3 63 -5 131 -4 l123 1 3 26 3
27 -104 0 -105 0 1 85 1 85 98 0 c98 0 98 0 98 25 0 25 0 25 -99 25 l-100 0 2
75 1 75 103 0 103 0 0 25 0 25 -133 0 -132 0 -1 -232z"/>
<path d="M3140 3136 c0 -242 2 -252 41 -237 13 5 15 33 14 194 -1 103 2 184 6
180 3 -5 59 -89 124 -188 64 -99 118 -181 119 -183 2 -1 17 -4 33 -6 39 -4 39
-10 37 229 -3 268 0 245 -29 245 l-25 0 0 -197 c0 -170 -2 -194 -13 -173 -8
14 -64 103 -126 198 -110 167 -114 172 -147 172 l-34 0 0 -234z"/>
<path d="M3580 3345 c0 -24 2 -25 75 -25 l75 0 0 -213 0 -214 30 5 30 4 0 209
0 209 75 0 c73 0 75 1 75 25 l0 25 -180 0 -180 0 0 -25z"/>
<path d="M5110 3136 c0 -244 1 -249 43 -238 15 4 17 17 17 97 0 89 1 94 23 97
59 8 70 0 126 -97 49 -85 57 -93 87 -97 19 -2 34 -1 34 3 0 3 -27 51 -60 105
l-60 98 30 19 c61 39 81 138 38 192 -33 42 -76 55 -183 55 l-95 0 0 -234z
m199 169 c48 -24 56 -86 19 -130 -20 -23 -32 -26 -88 -28 l-65 -2 -3 88 -3 87
56 0 c31 0 69 -7 84 -15z"/>
<path d="M5516 3139 c1 -240 3 -253 43 -242 15 4 17 17 17 94 l-1 89 45 1
c127 2 200 56 200 147 0 102 -59 141 -210 142 l-95 0 1 -231z m221 147 c27
-31 29 -75 5 -113 -17 -27 -29 -31 -103 -39 -45 -4 -59 -3 -60 8 -1 7 -2 51
-3 97 l-1 83 68 -4 c61 -3 72 -7 94 -32z"/>
<path d="M6430 3136 c0 -214 1 -234 18 -238 37 -10 42 1 42 97 0 89 1 94 23
97 59 9 71 0 126 -97 46 -79 59 -94 83 -97 16 -3 31 -1 34 3 2 4 -22 52 -55
106 l-59 97 32 23 c38 25 61 73 58 117 -7 94 -59 126 -205 126 l-97 0 0 -234z
m189 173 c37 -13 51 -35 51 -81 0 -37 -30 -77 -58 -79 -9 -1 -41 -3 -69 -5
l-53 -4 0 90 0 90 49 0 c26 0 62 -5 80 -11z"/>
<path d="M7198 3358 c-12 -31 4 -38 77 -38 l74 0 0 -192 c-1 -106 0 -200 0
-209 1 -20 38 -32 48 -16 4 7 8 102 8 212 l0 200 75 5 c69 5 75 7 76 28 l1 22
-177 0 c-133 0 -179 -3 -182 -12z"/>
<path d="M7620 3136 l0 -234 25 -4 c13 -3 27 -3 30 0 3 3 5 110 5 239 l0 233
-30 0 -30 0 0 -234z"/>
<path d="M8322 3136 c0 -216 2 -235 18 -239 10 -2 22 -2 27 2 6 3 9 83 8 194
-1 103 2 184 5 180 4 -5 51 -75 105 -158 140 -217 137 -213 162 -218 45 -8 46
-2 47 242 l1 231 -27 0 -28 0 0 -192 0 -193 -126 193 c-121 185 -128 192 -159
192 l-33 0 0 -234z"/>
<path d="M4930 2250 c0 -5 4 -10 9 -10 6 0 13 5 16 10 3 6 -1 10 -9 10 -9 0
-16 -4 -16 -10z"/>
<path d="M5095 2250 c3 -5 10 -10 16 -10 5 0 9 5 9 10 0 6 -7 10 -16 10 -8 0
-12 -4 -9 -10z"/>
</g>
</svg>
